# xmcd
#
# Track frame offsets: 
#        150
#        20836
#        41933
#        59743
#        83591
#        107424
#        132257
#        153645
#        174359
#        195226
#        216063
#        236352
#        253515
#
# Disc length: 3634 seconds
#
# Revision: 0
# Processed by: cddbd v1.5.2PL0 Copyright (c) Steve Scherf et al.
# Submitted via: ExactAudioCopy v1.3
#
DISCID=ab0e300d
DTITLE=瀧川ありさ - at film.
DYEAR=2017
DGENRE=JPop
TTITLE0=Season
TTITLE1=BOY'S CHRONICLE
TTITLE2=さよならのゆくえ
TTITLE3=色褪せない瞳
TTITLE4=日々モノクローム
TTITLE5=プラネタリウム
TTITLE6=Again
TTITLE7=Sugar
TTITLE8=夏の花
TTITLE9=17番地
TTITLE10=Journey
TTITLE11=アイセイハローのすべて
TTITLE12=花束
EXTD=
EXTT0=
EXTT1=
EXTT2=
EXTT3=
EXTT4=
EXTT5=
EXTT6=
EXTT7=
EXTT8=
EXTT9=
EXTT10=
EXTT11=
EXTT12=
PLAYORDER=
